<?xml version="1.0" encoding="UTF-8" standalone="no"?>
<!-- Created with Inkscape (http://www.inkscape.org/) -->

<svg
   xmlns:dc="http://purl.org/dc/elements/1.1/"
   xmlns:cc="http://creativecommons.org/ns#"
   xmlns:rdf="http://www.w3.org/1999/02/22-rdf-syntax-ns#"
   xmlns:svg="http://www.w3.org/2000/svg"
   xmlns="http://www.w3.org/2000/svg"
   xmlns:sodipodi="http://sodipodi.sourceforge.net/DTD/sodipodi-0.dtd"
   xmlns:inkscape="http://www.inkscape.org/namespaces/inkscape"
   width="1000"
   height="1894.78"
   id="svg2"
   version="1.1"
   inkscape:version="0.48.4 r9939"
   sodipodi:docname="Nuovo documento 1">
  <defs
     id="defs4" />
  <sodipodi:namedview
     id="base"
     pagecolor="#ffffff"
     bordercolor="#666666"
     borderopacity="1.0"
     inkscape:pageopacity="0.0"
     inkscape:pageshadow="2"
     inkscape:zoom="0.28286738"
     inkscape:cx="472.09175"
     inkscape:cy="955.39113"
     inkscape:document-units="px"
     inkscape:current-layer="layer6"
     showgrid="false"
     inkscape:window-width="1366"
     inkscape:window-height="706"
     inkscape:window-x="-8"
     inkscape:window-y="-8"
     inkscape:window-maximized="1"
     fit-margin-top="10"
     fit-margin-left="50"
     fit-margin-right="50"
     fit-margin-bottom="50" />
  <metadata
     id="metadata7">
    <rdf:RDF>
      <cc:Work
         rdf:about="">
        <dc:format>image/svg+xml</dc:format>
        <dc:type
           rdf:resource="http://purl.org/dc/dcmitype/StillImage" />
        <dc:title></dc:title>
      </cc:Work>
    </rdf:RDF>
  </metadata>
  <g
     inkscape:groupmode="layer"
     id="layer3"
     inkscape:label="Gamba DX"
     style="display:inline"
     transform="translate(-88.494092,416.1195)">
    <g
       id="g4354"
       transform="translate(214,12)">
      <path
         inkscape:connector-curvature="0"
         id="path4019-0"
         d="m 421.58639,1269.8616 c 38.82691,-10.528 57.36007,-8.6677 73.03686,-6.8739 15.6768,1.7938 15.84298,-5.3471 26.83636,13.4853 10.99337,18.8322 3.68516,87.2521 3.68516,87.2521 0,0 -17.40411,11.0265 -47.5622,17.4695 -30.15807,6.4429 -68.98496,16.9709 -96.18695,19.1958 -27.20199,2.2248 -79.97835,-1.8614 -94.06076,-10.7629 -14.08241,-8.9015 -25.30847,-17.7364 -27.86568,-30.6566 -2.55721,-12.9201 3.25524,-17.0718 24.81097,-22.2859 21.55572,-5.2143 31.78569,-14.9789 54.80284,-21.5879 23.01714,-6.6091 53.37466,-21.6211 62.17643,-31.419 8.80179,-9.7979 20.32697,-13.8165 20.32697,-13.8165 z"
         style="color:#000000;fill:#e6b39d;fill-opacity:1;fill-rule:nonzero;stroke:#ffffff;stroke-width:7.59645081;stroke-linecap:butt;stroke-linejoin:miter;stroke-miterlimit:4;stroke-opacity:1;stroke-dasharray:none;stroke-dashoffset:0;marker:none;visibility:visible;display:inline;overflow:visible;enable-background:accumulate" />
      <path
         inkscape:connector-curvature="0"
         id="path4021-9"
         d="m 335.62238,896.37156 c -2.321,-11.28123 -2.69052,-34.18 15.15105,-44.18234 17.84154,-10.00234 29.12276,-12.32333 56.18191,-14.45331 27.05917,-2.12995 35.49206,-4.22676 48.11853,10.54224 12.62646,14.769 15.05957,27.47439 19.36524,45.76434 4.30569,18.28996 5.95406,21.02619 15.95641,38.86772 10.00234,17.84154 13.52329,26.16232 19.25313,44.34015 5.72985,18.1779 19.81366,51.46104 21.38312,71.39934 1.56949,19.9384 -14.47842,52.7274 -15.6452,74.3141 -1.16679,21.5867 2.12995,27.0591 -0.79729,44.4854 -2.92726,17.4263 -6.94237,39.2373 -5.59712,56.3273 1.34525,17.0899 2.12994,27.0591 3.25098,41.3007 1.12104,14.2418 14.80219,5.9999 2.46629,31.3317 -12.3359,25.3318 -43.97068,42.1519 -61.62118,36.3764 -17.65052,-5.7756 -49.12746,-23.3598 -50.2485,-37.6015 -1.12104,-14.2417 10.79962,-26.6439 14.92684,-47.0307 4.12722,-20.3867 12.78431,-19.6352 10.43014,-49.5426 -2.35418,-29.9075 -0.29057,-40.1008 -8.11721,-66.7116 -7.82662,-26.6107 -17.30163,-55.9577 -23.25569,-76.9839 -5.95405,-21.0262 -5.20251,-29.6833 -9.50818,-47.9732 -4.30569,-18.29004 -13.14125,-57.71827 -51.69328,-110.57024 z"
         style="color:#000000;fill:#000000;fill-opacity:1;fill-rule:nonzero;stroke:#ffffff;stroke-width:7.08661413;stroke-linecap:butt;stroke-linejoin:miter;stroke-miterlimit:4;stroke-opacity:1;stroke-dasharray:none;stroke-dashoffset:0;marker:none;visibility:visible;display:inline;overflow:visible;enable-background:accumulate" />
      <path
         sodipodi:nodetypes="ccccsssssssssc"
         inkscape:connector-curvature="0"
         id="path4023-4"
         d="m 328.19079,455.53166 c 41.32995,-47.0345 75.39335,-43.13633 103.7795,-39.88785 114.95729,16.81043 95.49697,79.00384 95.19833,123.0502 -2.52134,47.16204 -41.97962,52.71173 -56.50516,104.25159 -6.08845,33.77101 -5.52239,48.25647 -6.37702,68.2892 -0.85463,20.03273 1.12935,40.3903 -1.46942,63.09924 -2.59883,22.70892 -3.4109,29.80547 -5.6848,49.67578 -2.27389,19.87031 -7.95116,19.22062 -10.38751,40.51024 -2.43632,21.28962 -0.94725,96.23058 -46.85237,95.29095 -45.90512,-0.93964 -88.35684,-44.62093 -91.59772,-66.56026 -3.24086,-21.9393 2.60638,-73.03438 -8.05588,-92.9472 -10.66225,-19.91283 -20.5473,-84.31145 -19.85511,-102.92487 0.69221,-18.61343 6.22128,-58.22323 10.96741,-120.96602 5.60742,-74.12885 36.83979,-120.881 36.83979,-120.881 z"
         style="color:#000000;fill:#000000;fill-opacity:1;fill-rule:nonzero;stroke:#ffffff;stroke-width:7.08661413;stroke-linecap:butt;stroke-linejoin:miter;stroke-miterlimit:4;stroke-opacity:1;stroke-dasharray:none;stroke-dashoffset:0;marker:none;visibility:visible;display:inline;overflow:visible;enable-background:accumulate" />
    </g>
  </g>
  <g
     inkscape:label="BraccioDX"
     id="g4378"
     inkscape:groupmode="layer"
     transform="translate(-88.494092,416.1195)">
    <g
       transform="matrix(0.99047608,0.13768489,-0.13768489,0.99047608,160.00113,-36.223295)"
       id="g4380">
      <path
         style="color:#000000;fill:#000000;fill-opacity:1;fill-rule:nonzero;stroke:#ffffff;stroke-width:7.08661413;stroke-linecap:butt;stroke-linejoin:miter;stroke-miterlimit:4;stroke-opacity:1;stroke-dasharray:none;stroke-dashoffset:0;marker:none;visibility:visible;display:inline;overflow:visible;enable-background:accumulate"
         d="m 484.28571,-84.780676 c 0,0 -79.28571,20 -75.71428,80.0000004 C 412.14286,55.219324 422.14286,55.219324 425,70.219324 c 2.85714,15 17.14286,177.857146 25.71429,196.428576 8.57142,18.57142 77.85714,39.28571 89.28571,20.71428 11.42857,-18.57143 12.85714,-85 12.85714,-93.57143 0,-8.57143 25,-107.85714 23.57143,-127.142854 C 575,47.362182 587.14286,0.21932473 566.42857,-44.06639 552.74303,-73.325123 529.28571,-95.494961 484.28571,-84.780676 z"
         id="path4382"
         inkscape:connector-curvature="0"
         sodipodi:nodetypes="csssssssc" />
      <path
         style="color:#000000;fill:#e6b39d;fill-opacity:1;fill-rule:nonzero;stroke:#ffffff;stroke-width:7.59645081;stroke-linecap:butt;stroke-linejoin:miter;stroke-miterlimit:4;stroke-opacity:1;stroke-dasharray:none;stroke-dashoffset:0;marker:none;visibility:visible;display:inline;overflow:visible;enable-background:accumulate"
         d="m 365.67522,502.8392 c -50.50763,48.48732 -55.55839,67.68022 -63.63961,94.95434 -8.08122,27.27412 -15.15229,66.67007 -9.09137,76.77159 6.06091,10.10153 23.23351,29.29442 45.45686,19.1929 22.22336,-10.10153 48.48732,-21.2132 53.53809,-39.39595 5.05076,-18.18275 12.12183,-53.53809 12.12183,-63.63961 0,-10.10153 1.01015,-13.13198 7.07107,-33.33503 6.06091,-20.20306 6.06091,-40.40611 -14.14214,-49.49748 -20.20305,-9.09137 -19.1929,-17.17259 -31.31473,-5.05076 z"
         id="path4384"
         inkscape:connector-curvature="0" />
      <path
         style="color:#000000;fill:#000000;fill-opacity:1;fill-rule:nonzero;stroke:#ffffff;stroke-width:7.08661413;stroke-linecap:butt;stroke-linejoin:miter;stroke-miterlimit:4;stroke-opacity:1;stroke-dasharray:none;stroke-dashoffset:0;marker:none;visibility:visible;display:inline;overflow:visible;enable-background:accumulate"
         d="m 442.44681,272.52442 c -27.27411,69.70052 -18.18274,44.44671 -28.28427,79.80205 -10.10152,35.35534 -36.36549,101.01525 -44.44671,115.15739 -8.08122,14.14213 -20.20305,55.55839 13.13198,61.6193 33.33504,6.06092 38.3858,0 54.54824,-28.28427 16.16244,-28.28427 67.68022,-114.14723 72.73099,-129.29952 5.05076,-15.15229 30.30457,-71.72083 31.31472,-81.82236 1.01016,-10.10152 0,-39.39595 -22.22335,-46.46702 -22.22336,-7.07106 -58.58885,-22.22335 -76.7716,29.29443 z"
         id="path4386"
         inkscape:connector-curvature="0" />
    </g>
  </g>
  <g
     inkscape:groupmode="layer"
     id="layer5"
     inkscape:label="Busto"
     style="opacity:0.75581396;display:inline"
     transform="translate(-88.494092,416.1195)">
    <path
       style="color:#000000;fill:#000000;fill-opacity:1;fill-rule:nonzero;stroke:#ffffff;stroke-width:7.08661413;stroke-linecap:butt;stroke-linejoin:miter;stroke-miterlimit:4;stroke-opacity:1;stroke-dasharray:none;stroke-dashoffset:0;marker:none;visibility:visible;display:inline;overflow:visible;enable-background:accumulate"
       d="m 506.28571,452.93361 c 0,0 -31.42857,74.28572 -20,100 11.42858,25.71429 22.69914,38.67718 22.69914,38.67718 0,0 33.33503,19.1929 62.62946,23.23351 29.29442,4.04061 142.43151,-4.04061 163.64471,-36.36549 21.2132,-32.32488 37.37564,-75.76144 26.26396,-109.09648 -11.11167,-33.33503 -51.51778,-103.03556 -55.55839,-120.20815 -4.04061,-17.17259 3.03046,-88.89342 23.23351,-140.4112 20.20305,-51.51778 19.1929,-44.44672 32.32488,-136.370597 13.13199,-91.923882 -30.30457,-142.431509 -30.30457,-142.431509 0,0 -37.37565,-42.426404 -35.35534,-72.730984 2.0203,-30.30458 -134.35029,52.52793 -134.35029,52.52793 0,0 -80.43337,70.459149 -88.89342,173.746241 -30.65343,85.155939 15.14405,183.431819 19.1929,246.477219 2.0203,41.41626 19.85554,105.49346 14.47345,122.95233 z"
       id="path4042"
       inkscape:connector-curvature="0"
       sodipodi:nodetypes="cscsssssscscccc" />
  </g>
  <g
     inkscape:groupmode="layer"
     id="layer6"
     inkscape:label="Testa"
     style="display:inline"
     transform="translate(-88.494092,416.1195)">
    <g
       id="g4388"
       transform="translate(218,26)">
      <path
         sodipodi:nodetypes="csccsccc"
         inkscape:connector-curvature="0"
         id="path4009"
         d="m 497.38316,-247.3823 c 26.8768,-58.39833 5.95554,-123.98364 -42.77166,-157.55126 -48.72719,-33.56763 -126.6907,17.32522 -133.18766,21.65653 -53.62747,54.9 -23.63894,96.44092 -34.65045,112.61395 -8.66261,12.99392 -23.05133,26.25009 -21.6289,36.91333 0.89172,6.6848 12.95454,11.81654 21.37696,10.2852 -11.62795,18.87813 -8.67172,43.85564 6.67807,70.46358 82.73078,-2.73391 175.46002,-32.51001 204.18364,-94.38133 z"
         style="fill:#e6b39d;fill-opacity:0.6745098;stroke:#ffffff;stroke-width:7.59645081;stroke-linecap:butt;stroke-linejoin:miter;stroke-miterlimit:4;stroke-opacity:1;stroke-dasharray:none" />
      <path
         sodipodi:nodetypes="ccc"
         inkscape:connector-curvature="0"
         id="path4013"
         d="m 413.35905,-230.91366 c 0,0 1.35352,18.94947 -4.87273,48.4565 -14.07675,6.22626 -47.10295,14.61816 -47.10295,14.61816"
         style="fill:none;stroke:#000000;stroke-width:2;stroke-linecap:butt;stroke-linejoin:miter;stroke-miterlimit:4;stroke-opacity:1;stroke-dasharray:none" />
      <path
         sodipodi:nodetypes="cssssssc"
         inkscape:connector-curvature="0"
         id="path4017"
         d="m 389.42298,-274.39492 c 0,-9.57093 2.67986,-24.88441 13.01646,-26.03292 10.3366,-1.14851 17.22767,2.67986 19.52469,9.18809 4.94795,14.01915 5.35972,34.45533 -2.67986,42.49491 -8.03958,8.03958 -12.25078,13.78213 -15.31347,19.52468 -3.06271,5.74256 -4.9769,9.1881 -9.95377,9.18809 -9.01092,-1e-5 -10.71944,-5.35972 -11.10227,-9.57092 -0.38285,-4.21121 -0.38285,-4.59404 -0.38285,-4.59404"
         style="fill:none;stroke:#000000;stroke-width:2;stroke-linecap:butt;stroke-linejoin:miter;stroke-miterlimit:4;stroke-opacity:1;stroke-dasharray:none" />
    </g>
  </g>
  <g
     inkscape:groupmode="layer"
     id="layer4"
     inkscape:label="GambaSX"
     style="display:inline"
     transform="translate(-88.494092,416.1195)">
    <g
       id="g4329"
       transform="translate(214,12)">
      <path
         inkscape:connector-curvature="0"
         id="path4019"
         d="m 381.42857,1292.3622 c 38.57143,-11.4286 57.14286,-10 72.85714,-8.5714 15.71429,1.4285 15.71429,-5.7143 27.14286,12.8571 11.42857,18.5714 5.71428,87.1429 5.71428,87.1429 0,0 -17.14285,11.4285 -47.14285,18.5714 -30,7.1428 -68.57143,18.5714 -95.71429,21.4286 -27.14286,2.8571 -80,0 -94.28571,-8.5715 -14.28572,-8.5714 -25.71429,-17.1428 -28.57143,-30 -2.85714,-12.8571 2.85714,-17.1428 24.28571,-22.8571 21.42857,-5.7143 31.42857,-15.7143 54.28572,-22.8572 22.85714,-7.1428 52.85714,-22.8571 61.42857,-32.8571 8.57143,-10 20,-14.2857 20,-14.2857 z"
         style="color:#000000;fill:#e6b39d;fill-opacity:1;fill-rule:nonzero;stroke:#ffffff;stroke-width:7.59645081;stroke-linecap:butt;stroke-linejoin:miter;stroke-miterlimit:4;stroke-opacity:1;stroke-dasharray:none;stroke-dashoffset:0;marker:none;visibility:visible;display:inline;overflow:visible;enable-background:accumulate" />
      <path
         inkscape:connector-curvature="0"
         id="path4021"
         d="m 355.08794,908.65704 c -0.64109,-11.49965 2.35238,-34.20493 21.46812,-41.48195 19.11576,-7.27702 30.61542,-7.9181 57.69432,-6.0558 27.0789,1.86229 35.72814,1.02518 46.05161,17.48656 10.32346,16.46138 10.86653,29.38624 12.44273,48.10994 1.57622,18.7237 2.80539,21.67212 10.08242,40.78788 7.27702,19.11576 9.53934,27.86301 12.54075,46.68473 3.0014,18.8218 12.05067,53.8108 10.67846,73.7636 -1.37223,19.9529 -22.05624,50.0332 -26.37688,71.2153 -4.32065,21.182 -1.86229,27.0788 -7.31409,43.8872 -5.45181,16.8084 -12.62287,37.7944 -13.79906,54.897 -1.17618,17.1024 -1.86229,27.0788 -2.84244,41.3308 -0.98017,14.2522 13.76197,8.1063 -2.15635,31.3546 -15.91832,23.2483 -49.67818,35.246 -66.29057,26.9438 -16.61238,-8.3022 -45.16947,-30.3134 -44.18931,-44.5655 0.98016,-14.252 14.59112,-24.7715 21.66416,-44.3323 7.07304,-19.5608 15.52625,-17.5475 17.58458,-47.4768 2.05833,-29.9293 5.59486,-39.7097 1.75633,-67.1807 -3.83851,-27.471 -8.90621,-57.8903 -11.71161,-79.5625 -2.80537,-21.6721 -0.79208,-30.1253 -2.36828,-48.8489 -1.5762,-18.7237 -4.53258,-59.02159 -34.91489,-116.95696 z"
         style="color:#000000;fill:#000000;fill-opacity:1;fill-rule:nonzero;stroke:#ffffff;stroke-width:7.08661413;stroke-linecap:butt;stroke-linejoin:miter;stroke-miterlimit:4;stroke-opacity:1;stroke-dasharray:none;stroke-dashoffset:0;marker:none;visibility:visible;display:inline;overflow:visible;enable-background:accumulate" />
      <path
         sodipodi:nodetypes="ccccsssssssssc"
         inkscape:connector-curvature="0"
         id="path4023"
         d="m 321.42857,455.21933 c 35.71428,-51.42858 70,-51.42858 98.57143,-51.42858 116.12314,3.63117 103.86019,67.63386 108.57142,111.42857 2.85716,47.14287 -35.71427,57.14286 -44.28571,110.00001 -2.20931,34.24426 0,48.57142 1.42858,68.57142 1.42857,20 5.71428,40 5.71428,62.85715 0,22.85714 0,30 0,50 0,20 -5.71428,20 -5.71428,41.42857 0,21.42857 10,95.71428 -35.71429,100 -45.71429,4.28571 -92.85714,-34.28572 -98.57143,-55.71429 -5.71428,-21.42857 -5.71428,-72.85714 -18.57143,-91.42857 -12.85714,-18.57143 -30,-81.42857 -31.42857,-100 C 300,682.36218 300.98972,642.38059 298.57143,579.50504 295.71428,505.21933 321.42857,455.21933 321.42857,455.21933 z"
         style="color:#000000;fill:#000000;fill-opacity:1;fill-rule:nonzero;stroke:#ffffff;stroke-width:7.08661413;stroke-linecap:butt;stroke-linejoin:miter;stroke-miterlimit:4;stroke-opacity:1;stroke-dasharray:none;stroke-dashoffset:0;marker:none;visibility:visible;display:inline;overflow:visible;enable-background:accumulate" />
    </g>
  </g>
  <g
     inkscape:groupmode="layer"
     id="layer7"
     inkscape:label="BraccioSX"
     style="display:inline"
     transform="translate(-88.494092,416.1195)">
    <g
       id="g4373"
       transform="translate(159.71429,20.571429)">
      <path
         sodipodi:nodetypes="csssssssc"
         inkscape:connector-curvature="0"
         id="path4183"
         d="m 484.28571,-84.780676 c 0,0 -79.28571,20 -75.71428,80.0000004 C 412.14286,55.219324 422.14286,55.219324 425,70.219324 c 2.85714,15 17.14286,177.857146 25.71429,196.428576 8.57142,18.57142 77.85714,39.28571 89.28571,20.71428 11.42857,-18.57143 12.85714,-85 12.85714,-93.57143 0,-8.57143 25,-107.85714 23.57143,-127.142854 C 575,47.362182 587.14286,0.21932473 566.42857,-44.06639 552.74303,-73.325123 529.28571,-95.494961 484.28571,-84.780676 z"
         style="color:#000000;fill:#000000;fill-opacity:1;fill-rule:nonzero;stroke:#ffffff;stroke-width:7.08661413;stroke-linecap:butt;stroke-linejoin:miter;stroke-miterlimit:4;stroke-opacity:1;stroke-dasharray:none;stroke-dashoffset:0;marker:none;visibility:visible;display:inline;overflow:visible;enable-background:accumulate" />
      <path
         inkscape:connector-curvature="0"
         id="path4187"
         d="m 365.67522,502.8392 c -50.50763,48.48732 -55.55839,67.68022 -63.63961,94.95434 -8.08122,27.27412 -15.15229,66.67007 -9.09137,76.77159 6.06091,10.10153 23.23351,29.29442 45.45686,19.1929 22.22336,-10.10153 48.48732,-21.2132 53.53809,-39.39595 5.05076,-18.18275 12.12183,-53.53809 12.12183,-63.63961 0,-10.10153 1.01015,-13.13198 7.07107,-33.33503 6.06091,-20.20306 6.06091,-40.40611 -14.14214,-49.49748 -20.20305,-9.09137 -19.1929,-17.17259 -31.31473,-5.05076 z"
         style="color:#000000;fill:#e6b39d;fill-opacity:1;fill-rule:nonzero;stroke:#ffffff;stroke-width:7.59645081;stroke-linecap:butt;stroke-linejoin:miter;stroke-miterlimit:4;stroke-opacity:1;stroke-dasharray:none;stroke-dashoffset:0;marker:none;visibility:visible;display:inline;overflow:visible;enable-background:accumulate" />
      <path
         inkscape:connector-curvature="0"
         id="path4185"
         d="m 442.44681,272.52442 c -27.27411,69.70052 -18.18274,44.44671 -28.28427,79.80205 -10.10152,35.35534 -36.36549,101.01525 -44.44671,115.15739 -8.08122,14.14213 -20.20305,55.55839 13.13198,61.6193 33.33504,6.06092 38.3858,0 54.54824,-28.28427 16.16244,-28.28427 67.68022,-114.14723 72.73099,-129.29952 5.05076,-15.15229 30.30457,-71.72083 31.31472,-81.82236 1.01016,-10.10152 0,-39.39595 -22.22335,-46.46702 -22.22336,-7.07106 -58.58885,-22.22335 -76.7716,29.29443 z"
         style="color:#000000;fill:#000000;fill-opacity:1;fill-rule:nonzero;stroke:#ffffff;stroke-width:7.08661413;stroke-linecap:butt;stroke-linejoin:miter;stroke-miterlimit:4;stroke-opacity:1;stroke-dasharray:none;stroke-dashoffset:0;marker:none;visibility:visible;display:inline;overflow:visible;enable-background:accumulate" />
    </g>
  </g>
</svg>
